999
last saved by ezdxf 0.8.4 on 2018-03-28 11:20:24
  0
SECTION
  2
HEADER
  9
$ACADVER
  1
AC1021
  9
$ACADMAINTVER
 70
50
  9
$DWGCODEPAGE
  3
ANSI_1252
  9
$LASTSAVEDBY
  1
unknown
  9
$INSBASE
 10
0.0
 20
0.0
 30
0.0
  9
$EXTMIN
 10
1e+20
 20
1e+20
 30
1e+20
  9
$EXTMAX
 10
-1e+20
 20
-1e+20
 30
-1e+20
  9
$LIMMIN
 10
0.0
 20
0.0
  9
$LIMMAX
 10
12.0
 20
9.0
  9
$ORTHOMODE
 70
0
  9
$REGENMODE
 70
1
  9
$FILLMODE
 70
1
  9
$QTEXTMODE
 70
0
  9
$MIRRTEXT
 70
0
  9
$LTSCALE
 40
1.0
  9
$ATTMODE
 70
1
  9
$TEXTSIZE
 40
0.2
  9
$TRACEWID
 40
0.05
  9
$TEXTSTYLE
  7
Notes
  9
$CLAYER
  8
0
  9
$CELTYPE
  6
ByLayer
  9
$CECOLOR
 62
256
  9
$CELTSCALE
 40
1.0
  9
$DISPSILH
 70
0
  9
$DIMSCALE
 40
1.0
  9
$DIMASZ
 40
3.0
  9
$DIMEXO
 40
1.5
  9
$DIMDLI
 40
6.0
  9
$DIMRND
 40
0.0
  9
$DIMDLE
 40
0.0
  9
$DIMEXE
 40
3.0
  9
$DIMTP
 40
0.0
  9
$DIMTM
 40
0.0
  9
$DIMTXT
 40
3.0
  9
$DIMCEN
 40
3.0
  9
$DIMTSZ
 40
0.0
  9
$DIMTOL
 70
0
  9
$DIMLIM
 70
0
  9
$DIMTIH
 70
0
  9
$DIMTOH
 70
0
  9
$DIMSE1
 70
0
  9
$DIMSE2
 70
0
  9
$DIMTAD
 70
1
  9
$DIMZIN
 70
3
  9
$DIMBLK
  1

  9
$DIMASO
 70
1
  9
$DIMSHO
 70
1
  9
$DIMPOST
  1

  9
$DIMAPOST
  1

  9
$DIMALT
 70
0
  9
$DIMALTD
 70
2
  9
$DIMALTF
 40
25.4
  9
$DIMLFAC
 40
1.0
  9
$DIMTOFL
 70
0
  9
$DIMTVP
 40
0.0
  9
$DIMTIX
 70
0
  9
$DIMSOXD
 70
0
  9
$DIMSAH
 70
0
  9
$DIMBLK1
  1

  9
$DIMBLK2
  1

  9
$DIMSTYLE
  2
Civil-Metric
  9
$DIMCLRD
 70
0
  9
$DIMCLRE
 70
0
  9
$DIMCLRT
 70
0
  9
$DIMTFAC
 40
1.0
  9
$DIMGAP
 40
2.0
  9
$DIMJUST
 70
0
  9
$DIMSD1
 70
0
  9
$DIMSD2
 70
0
  9
$DIMTOLJ
 70
1
  9
$DIMTZIN
 70
0
  9
$DIMALTZ
 70
0
  9
$DIMALTTZ
 70
0
  9
$DIMUPT
 70
0
  9
$DIMDEC
 70
2
  9
$DIMTDEC
 70
2
  9
$DIMALTU
 70
2
  9
$DIMALTTD
 70
2
  9
$DIMTXSTY
  7
Standard
  9
$DIMAUNIT
 70
0
  9
$DIMADEC
 70
2
  9
$DIMALTRND
 40
0.0
  9
$DIMAZIN
 70
2
  9
$DIMDSEP
 70
46
  9
$DIMATFIT
 70
3
  9
$DIMFRAC
 70
1
  9
$DIMLDRBLK
  1

  9
$DIMLUNIT
 70
2
  9
$DIMLWD
 70
-2
  9
$DIMLWE
 70
-2
  9
$DIMTMOVE
 70
0
  9
$DIMFXL
 40
1.0
  9
$DIMFXLON
 70
0
  9
$DIMJOGANG
 40
0.785398163397
  9
$DIMTFILL
 70
0
  9
$DIMTFILLCLR
 70
0
  9
$DIMARCSYM
 70
0
  9
$DIMLTYPE
  6

  9
$DIMLTEX1
  6

  9
$DIMLTEX2
  6

  9
$LUNITS
 70
2
  9
$LUPREC
 70
4
  9
$SKETCHINC
 40
0.1
  9
$FILLETRAD
 40
0.0
  9
$AUNITS
 70
4
  9
$AUPREC
 70
5
  9
$MENU
  1
.
  9
$ELEVATION
 40
0.0
  9
$PELEVATION
 40
0.0
  9
$THICKNESS
 40
0.0
  9
$LIMCHECK
 70
0
  9
$CHAMFERA
 40
0.0
  9
$CHAMFERB
 40
0.0
  9
$CHAMFERC
 40
0.0
  9
$CHAMFERD
 40
0.0
  9
$SKPOLY
 70
0
  9
$TDCREATE
 40
2458206.4725
  9
$TDUPDATE
 40
2458206.4725
  9
$TDINDWG
 40
0.0
  9
$TDUSRTIMER
 40
0.0
  9
$USRTIMER
 70
1
  9
$ANGBASE
 50
0.0
  9
$ANGDIR
 70
0
  9
$PDMODE
 70
0
  9
$PDSIZE
 40
0.0
  9
$PLINEWID
 40
0.0
  9
$SPLFRAME
 70
0
  9
$SPLINETYPE
 70
6
  9
$SPLINESEGS
 70
8
  9
$HANDSEED
  5
62D
  9
$SURFTAB1
 70
6
  9
$SURFTAB2
 70
6
  9
$SURFTYPE
 70
6
  9
$SURFU
 70
6
  9
$SURFV
 70
6
  9
$UCSBASE
  2

  9
$UCSNAME
  2

  9
$UCSORG
 10
0.0
 20
0.0
 30
0.0
  9
$UCSXDIR
 10
1.0
 20
0.0
 30
0.0
  9
$UCSYDIR
 10
0.0
 20
1.0
 30
0.0
  9
$UCSORTHOREF
  2

  9
$UCSORTHOVIEW
 70
0
  9
$UCSORGTOP
 10
0.0
 20
0.0
 30
0.0
  9
$UCSORGBOTTOM
 10
0.0
 20
0.0
 30
0.0
  9
$UCSORGLEFT
 10
0.0
 20
0.0
 30
0.0
  9
$UCSORGRIGHT
 10
0.0
 20
0.0
 30
0.0
  9
$UCSORGFRONT
 10
0.0
 20
0.0
 30
0.0
  9
$UCSORGBACK
 10
0.0
 20
0.0
 30
0.0
  9
$PUCSBASE
  2

  9
$PUCSNAME
  2

  9
$PUCSORG
 10
0.0
 20
0.0
 30
0.0
  9
$PUCSXDIR
 10
1.0
 20
0.0
 30
0.0
  9
$PUCSYDIR
 10
0.0
 20
1.0
 30
0.0
  9
$PUCSORTHOREF
  2

  9
$PUCSORTHOVIEW
 70
0
  9
$PUCSORGTOP
 10
0.0
 20
0.0
 30
0.0
  9
$PUCSORGBOTTOM
 10
0.0
 20
0.0
 30
0.0
  9
$PUCSORGLEFT
 10
0.0
 20
0.0
 30
0.0
  9
$PUCSORGRIGHT
 10
0.0
 20
0.0
 30
0.0
  9
$PUCSORGFRONT
 10
0.0
 20
0.0
 30
0.0
  9
$PUCSORGBACK
 10
0.0
 20
0.0
 30
0.0
  9
$USERI1
 70
0
  9
$USERI2
 70
0
  9
$USERI3
 70
0
  9
$USERI4
 70
0
  9
$USERI5
 70
0
  9
$USERR1
 40
0.0
  9
$USERR2
 40
0.0
  9
$USERR3
 40
0.0
  9
$USERR4
 40
0.0
  9
$USERR5
 40
0.0
  9
$WORLDVIEW
 70
1
  9
$SHADEDGE
 70
3
  9
$SHADEDIF
 70
70
  9
$TILEMODE
 70
1
  9
$MAXACTVP
 70
64
  9
$PINSBASE
 10
0.0
 20
0.0
 30
0.0
  9
$PLIMCHECK
 70
0
  9
$PEXTMIN
 10
0.628866766397
 20
0.799999952316
 30
0.0
  9
$PEXTMAX
 10
9.02886638493
 20
7.19999957085
 30
0.0
  9
$PLIMMIN
 10
-0.700541819174
 20
-0.228100386192
  9
$PLIMMAX
 10
10.2994579405
 20
8.27189937351
  9
$UNITMODE
 70
0
  9
$VISRETAIN
 70
1
  9
$PLINEGEN
 70
0
  9
$PSLTSCALE
 70
1
  9
$TREEDEPTH
 70
3020
  9
$CMLSTYLE
  2
Standard
  9
$CMLJUST
 70
0
  9
$CMLSCALE
 40
1.0
  9
$PROXYGRAPHICS
 70
1
  9
$MEASUREMENT
 70
1
  9
$CELWEIGHT
370
-1
  9
$ENDCAPS
280
0
  9
$JOINSTYLE
280
0
  9
$LWDISPLAY
290
0
  9
$INSUNITS
 70
4
  9
$HYPERLINKBASE
  1

  9
$STYLESHEET
  1

  9
$XEDIT
290
1
  9
$CEPSNTYPE
380
0
  9
$PSTYLEMODE
290
1
  9
$FINGERPRINTGUID
  2
{39DB1BDD-BC6C-46D3-A333-DFCC0DC4782D}
  9
$VERSIONGUID
  2
{69EEBB2D-7039-498F-9366-3F994E4A07E7}
  9
$EXTNAMES
290
1
  9
$PSVPSCALE
 40
0.0
  9
$OLESTARTUP
290
0
  9
$SORTENTS
280
127
  9
$INDEXCTL
280
0
  9
$HIDETEXT
280
1
  9
$XCLIPFRAME
290
0
  9
$HALOGAP
280
0
  9
$OBSCOLOR
 70
257
  9
$OBSLTYPE
280
0
  9
$INTERSECTIONDISPLAY
280
0
  9
$INTERSECTIONCOLOR
 70
257
  9
$DIMASSOC
280
2
  9
$PROJECTNAME
  1

  9
$CAMERADISPLAY
290
0
  9
$LENSLENGTH
 40
50.0
  9
$CAMERAHEIGHT
 40
0.0
  9
$STEPSPERSEC
 40
2.0
  9
$STEPSIZE
 40
6.0
  9
$3DDWFPREC
 40
2.0
  9
$PSOLWIDTH
 40
0.25
  9
$PSOLHEIGHT
 40
4.0
  9
$LOFTANG1
 40
1.57079632679
  9
$LOFTANG2
 40
1.57079632679
  9
$LOFTMAG1
 40
0.0
  9
$LOFTMAG2
 40
0.0
  9
$LOFTPARAM
 70
7
  9
$LOFTNORMALS
280
1
  9
$LATITUDE
 40
37.795
  9
$LONGITUDE
 40
-122.394
  9
$NORTHDIRECTION
 40
0.0
  9
$TIMEZONE
 70
-8000
  9
$LIGHTGLYPHDISPLAY
280
1
  9
$TILEMODELIGHTSYNCH
280
1
  9
$CMATERIAL
347
96
  9
$SOLIDHIST
280
1
  9
$SHOWHIST
280
1
  9
$DWFFRAME
280
2
  9
$DGNFRAME
280
0
  9
$REALWORLDSCALE
290
1
  9
$INTERFERECOLOR
 62
1
  9
$INTERFEREOBJVS
345
A3
  9
$INTERFEREVPVS
346
A0
  9
$CSHADOW
280
0
  9
$SHADOWPLANELOCATION
 40
0.0
  0
ENDSEC
  0
SECTION
  2
CLASSES
  0
CLASS
  1
ACDBDICTIONARYWDFLT
  2
AcDbDictionaryWithDefault
  3
ObjectDBX Classes
 90
0
 91
1
280
0
281
0
  0
CLASS
  1
DICTIONARYVAR
  2
AcDbDictionaryVar
  3
ObjectDBX Classes
 90
0
 91
13
280
0
281
0
  0
CLASS
  1
TABLESTYLE
  2
AcDbTableStyle
  3
ObjectDBX Classes
 90
4095
 91
1
280
0
281
0
  0
CLASS
  1
MATERIAL
  2
AcDbMaterial
  3
ObjectDBX Classes
 90
1153
 91
3
280
0
281
0
  0
CLASS
  1
VISUALSTYLE
  2
AcDbVisualStyle
  3
ObjectDBX Classes
 90
4095
 91
19
280
0
281
0
  0
CLASS
  1
SCALE
  2
AcDbScale
  3
ObjectDBX Classes
 90
1153
 91
17
280
0
281
0
  0
CLASS
  1
MLEADERSTYLE
  2
AcDbMLeaderStyle
  3
ACDB_MLEADERSTYLE_CLASS
 90
4095
 91
3
280
0
281
0
  0
CLASS
  1
CELLSTYLEMAP
  2
AcDbCellStyleMap
  3
ObjectDBX Classes
 90
1152
 91
4
280
0
281
0
  0
CLASS
  1
EXACXREFPANELOBJECT
  2
ExAcXREFPanelObject
  3
EXAC_ESW
 90
1025
 91
0
280
0
281
0
  0
CLASS
  1
NPOCOLLECTION
  2
AcDbImpNonPersistentObjectsCollection
  3
ObjectDBX Classes
 90
1153
 91
0
280
0
281
0
  0
CLASS
  1
LAYER_INDEX
  2
AcDbLayerIndex
  3
ObjectDBX Classes
 90
0
 91
0
280
0
281
0
  0
CLASS
  1
SPATIAL_INDEX
  2
AcDbSpatialIndex
  3
ObjectDBX Classes
 90
0
 91
0
280
0
281
0
  0
CLASS
  1
IDBUFFER
  2
AcDbIdBuffer
  3
ObjectDBX Classes
 90
0
 91
0
280
0
281
0
  0
CLASS
  1
DIMASSOC
  2
AcDbDimAssoc
  3
"AcDbDimAssoc|Product Desc:     AcDim ARX App For Dimension|Company:          Autodesk, Inc.|WEB Address:      www.autodesk.com"
 90
0
 91
0
280
0
281
0
  0
CLASS
  1
IMAGEDEF
  2
AcDbRasterImageDef
  3
ISM
 90
0
 91
1
280
0
281
0
  0
CLASS
  1
RASTERVARIABLES
  2
AcDbRasterVariables
  3
ISM
 90
0
 91
1
280
0
281
0
  0
CLASS
  1
IMAGEDEF_REACTOR
  2
AcDbRasterImageDefReactor
  3
ISM
 90
1
 91
1
280
0
281
0
  0
CLASS
  1
IMAGE
  2
AcDbRasterImage
  3
ISM
 90
2175
 91
1
280
0
281
1
  0
CLASS
  1
PDFDEFINITION
  2
AcDbPdfDefinition
  3
ObjectDBX Classes
 90
1153
 91
1
280
0
281
0
  0
CLASS
  1
PDFUNDERLAY
  2
AcDbPdfReference
  3
ObjectDBX Classes
 90
4095
 91
1
280
0
281
1
  0
CLASS
  1
DWFDEFINITION
  2
AcDbDwfDefinition
  3
ObjectDBX Classes
 90
1153
 91
2
280
0
281
0
  0
CLASS
  1
DWFUNDERLAY
  2
AcDbDwfReference
  3
ObjectDBX Classes
 90
1153
 91
1
280
0
281
1
  0
CLASS
  1
DGNDEFINITION
  2
AcDbDgnDefinition
  3
ObjectDBX Classes
 90
1153
 91
2
280
0
281
0
  0
CLASS
  1
DGNUNDERLAY
  2
AcDbDgnReference
  3
ObjectDBX Classes
 90
1153
 91
1
280
0
281
1
  0
ENDSEC
  0
SECTION
  2
TABLES
  0
TABLE
  2
VPORT
  5
8
330
0
100
AcDbSymbolTable
 70
0
  0
ENDTAB
  0
TABLE
  2
LTYPE
  5
5
330
0
100
AcDbSymbolTable
 70
9
  0
LTYPE
  5
14
330
5
100
AcDbSymbolTableRecord
100
AcDbLinetypeTableRecord
  2
ByBlock
 70
0
  3

 72
65
 73
0
 40
0.0
  0
LTYPE
  5
15
330
5
100
AcDbSymbolTableRecord
100
AcDbLinetypeTableRecord
  2
ByLayer
 70
0
  3

 72
65
 73
0
 40
0.0
  0
LTYPE
  5
16
330
5
100
AcDbSymbolTableRecord
100
AcDbLinetypeTableRecord
  2
Continuous
 70
0
  3
Solid line
 72
65
 73
0
 40
0.0
  0
LTYPE
  5
1B1
330
5
100
AcDbSymbolTableRecord
100
AcDbLinetypeTableRecord
  2
CENTER
 70
0
  3
Center ____ _ ____ _ ____ _ ____ _ ____ _ ____
 72
65
 73
4
 40
2.0
 49
1.25
 74
0
 49
-0.25
 74
0
 49
0.25
 74
0
 49
-0.25
 74
0
  0
LTYPE
  5
1B2
330
5
100
AcDbSymbolTableRecord
100
AcDbLinetypeTableRecord
  2
DASHED
 70
0
  3
Dashed __ __ __ __ __ __ __ __ __ __ __ __ __ _
 72
65
 73
2
 40
0.75
 49
0.5
 74
0
 49
-0.25
 74
0
  0
LTYPE
  5
1B3
330
5
100
AcDbSymbolTableRecord
100
AcDbLinetypeTableRecord
  2
PHANTOM
 70
0
  3
Phantom ______  __  __  ______  __  __  ______
 72
65
 73
6
 40
2.5
 49
1.25
 74
0
 49
-0.25
 74
0
 49
0.25
 74
0
 49
-0.25
 74
0
 49
0.25
 74
0
 49
-0.25
 74
0
  0
LTYPE
  5
39E
330
5
100
AcDbSymbolTableRecord
100
AcDbLinetypeTableRecord
  2
HIDDEN
 70
0
  3
Hidden __ __ __ __ __ __ __ __ __ __ __ __ __ __
 72
65
 73
2
 40
9.525
 49
6.35
 74
0
 49
-3.175
 74
0
  0
LTYPE
  5
5D8
330
5
100
AcDbSymbolTableRecord
100
AcDbLinetypeTableRecord
  2
DASHSPACE
 70
0
  3
Dashspace - - - - - - - - - - - - - - - -
 72
65
 73
2
 40
10.0
 49
5.0
 74
0
 49
-5.0
 74
0
  0
LTYPE
  5
5D9
330
5
100
AcDbSymbolTableRecord
100
AcDbLinetypeTableRecord
  2
DOT
 70
0
  3
Dot . . . . . . . . . . . . . . . . . . . 
 72
65
 73
2
 40
5.0
 49
0.0
 74
0
 49
-5.0
 74
0
  0
ENDTAB
  0
TABLE
  2
LAYER
  5
2
330
0
100
AcDbSymbolTable
 70
6
  0
LAYER
  5
10
330
2
100
AcDbSymbolTableRecord
100
AcDbLayerTableRecord
  2
0
 70
0
 62
7
  6
Continuous
370
-3
390
502
  0
LAYER
  5
1B4
330
2
100
AcDbSymbolTableRecord
100
AcDbLayerTableRecord
  2
View Port
 70
0
 62
7
  6
Continuous
290
0
370
-3
390
502
  0
LAYER
  5
21D
330
2
100
AcDbSymbolTableRecord
100
AcDbLayerTableRecord
  2
Defpoints
 70
0
 62
7
  6
Continuous
290
0
370
-3
390
502
  0
LAYER
  5
5D5
330
2
100
AcDbSymbolTableRecord
100
AcDbLayerTableRecord
  2
Strip gaps
 70
0
 62
40
  6
Continuous
290
1
390
503
  0
LAYER
  5
5D6
330
2
100
AcDbSymbolTableRecord
100
AcDbLayerTableRecord
  2
Strips
 70
0
 62
222
  6
DASHED
290
1
390
503
  0
LAYER
  5
5D7
330
2
100
AcDbSymbolTableRecord
100
AcDbLayerTableRecord
  2
Vias
 70
0
 62
10
  6
Continuous
290
1
390
503
  0
ENDTAB
  0
TABLE
  2
STYLE
  5
3
330
0
100
AcDbSymbolTable
 70
3
  0
STYLE
  5
11
330
3
100
AcDbSymbolTableRecord
100
AcDbTextStyleTableRecord
  2
Standard
 70
0
 40
0.0
 41
1.0
 50
0.0
 71
0
 42
0.2
  3
arial.ttf
  4

  0
STYLE
  5
DC
330
3
100
AcDbSymbolTableRecord
100
AcDbTextStyleTableRecord
  2
Annotative
 70
0
 40
0.0
 41
1.0
 50
0.0
 71
0
 42
0.2
  3
arial.ttf
  4

  0
STYLE
  5
178
330
3
100
AcDbSymbolTableRecord
100
AcDbTextStyleTableRecord
  2
Notes
 70
0
 40
3.0
 41
1.0
 50
0.0
 71
0
 42
0.2
  3
arial.ttf
  4

  0
ENDTAB
  0
TABLE
  2
VIEW
  5
6
330
0
100
AcDbSymbolTable
 70
0
  0
ENDTAB
  0
TABLE
  2
UCS
  5
7
330
0
100
AcDbSymbolTable
 70
0
  0
ENDTAB
  0
TABLE
  2
APPID
  5
9
330
0
100
AcDbSymbolTable
 70
11
  0
APPID
  5
12
330
9
100
AcDbSymbolTableRecord
100
AcDbRegAppTableRecord
  2
ACAD
 70
0
  0
APPID
  5
DD
330
9
100
AcDbSymbolTableRecord
100
AcDbRegAppTableRecord
  2
AcadAnnoPO
 70
0
  0
APPID
  5
DE
330
9
100
AcDbSymbolTableRecord
100
AcDbRegAppTableRecord
  2
AcadAnnotative
 70
0
  0
APPID
  5
DF
330
9
100
AcDbSymbolTableRecord
100
AcDbRegAppTableRecord
  2
ACAD_DSTYLE_DIMJAG
 70
0
  0
APPID
  5
E0
330
9
100
AcDbSymbolTableRecord
100
AcDbRegAppTableRecord
  2
ACAD_DSTYLE_DIMTALN
 70
0
  0
APPID
  5
107
330
9
100
AcDbSymbolTableRecord
100
AcDbRegAppTableRecord
  2
ACAD_MLEADERVER
 70
0
  0
APPID
  5
1B5
330
9
100
AcDbSymbolTableRecord
100
AcDbRegAppTableRecord
  2
AcAecLayerStandard
 70
0
  0
APPID
  5
1BA
330
9
100
AcDbSymbolTableRecord
100
AcDbRegAppTableRecord
  2
ACAD_EXEMPT_FROM_CAD_STANDARDS
 70
0
  0
APPID
  5
237
330
9
100
AcDbSymbolTableRecord
100
AcDbRegAppTableRecord
  2
ACAD_DSTYLE_DIMBREAK
 70
0
  0
APPID
  5
28E
330
9
100
AcDbSymbolTableRecord
100
AcDbRegAppTableRecord
  2
ACAD_PSEXT
 70
0
  0
APPID
  5
4C2
330
9
100
AcDbSymbolTableRecord
100
AcDbRegAppTableRecord
  2
HATCHBACKGROUNDCOLOR
 70
0
  0
ENDTAB
  0
TABLE
  2
DIMSTYLE
  5
A
330
0
100
AcDbSymbolTable
 70
3
100
AcDbDimStyleTable
 71
3
340
242
340
27
340
E1
  0
DIMSTYLE
105
27
330
A
100
AcDbSymbolTableRecord
100
AcDbDimStyleTableRecord
  2
Standard
 70
0
 41
3.0
 42
2.0
 43
9.0
 44
5.0
140
3.0
141
2.0
147
2.0
340
11
1001
ACAD_DSTYLE_DIMJAG
1070
388
1040
38.0
1001
ACAD_DSTYLE_DIMBREAK
1070
391
1040
90.0
1001
ACAD_DSTYLE_DIMTALN
1070
392
1070
0
  0
DIMSTYLE
105
E1
330
A
100
AcDbSymbolTableRecord
100
AcDbDimStyleTableRecord
  2
Annotative
 70
0
 40
0.0
 41
3.0
 42
2.5
 43
10.0
 44
5.0
140
3.0
141
2.0
147
2.0
340
11
1001
AcadAnnotative
1000
AnnotativeData
1002
{
1070
1
1070
1
1002
}
1001
ACAD_DSTYLE_DIMJAG
1070
388
1040
38.0
1001
ACAD_DSTYLE_DIMBREAK
1070
391
1040
90.0
1001
ACAD_DSTYLE_DIMTALN
1070
392
1070
0
  0
DIMSTYLE
105
242
330
A
100
AcDbSymbolTableRecord
100
AcDbDimStyleTableRecord
  2
Civil-Metric
 70
0
 41
3.0
 42
1.5
 43
6.0
 44
3.0
 73
0
 74
0
 77
1
 78
3
 79
2
140
3.0
141
3.0
147
2.0
179
2
271
2
272
2
276
1
340
11
1001
ACAD_DSTYLE_DIMBREAK
1070
391
1040
3.0
1001
ACAD_DSTYLE_DIMJAG
1070
388
1040
38.0
1001
ACAD_DSTYLE_DIMTALN
1070
392
1070
0
  0
ENDTAB
  0
TABLE
  2
BLOCK_RECORD
  5
1
330
0
100
AcDbSymbolTable
 70
5
  0
BLOCK_RECORD
  5
1F
330
1
100
AcDbSymbolTableRecord
100
AcDbBlockTableRecord
  2
*Model_Space
340
507
 70
0
280
1
281
0
  0
BLOCK_RECORD
  5
58
330
1
100
AcDbSymbolTableRecord
100
AcDbBlockTableRecord
  2
*Paper_Space
340
508
 70
0
280
1
281
0
  0
BLOCK_RECORD
  5
238
330
1
100
AcDbSymbolTableRecord
100
AcDbBlockTableRecord
  2
_ArchTick
340
0
 70
0
280
1
281
0
  0
BLOCK_RECORD
  5
23C
330
1
100
AcDbSymbolTableRecord
100
AcDbBlockTableRecord
  2
_Open30
340
0
 70
0
280
1
281
0
  0
BLOCK_RECORD
  5
5DC
330
1
100
AcDbSymbolTableRecord
100
AcDbBlockTableRecord
  2
BLOCK173
340
0
102
{BLKREFS
102
}
 70
0
280
1
281
0
  0
ENDTAB
  0
ENDSEC
  0
SECTION
  2
BLOCKS
  0
BLOCK
  5
23A
330
238
100
AcDbEntity
  8
0
100
AcDbBlockBegin
  2
_ArchTick
 70
0
 10
0.0
 20
0.0
 30
0.0
  3
_ArchTick
  1

  0
LWPOLYLINE
  5
239
330
238
100
AcDbEntity
  8
0
  6
ByBlock
 62
0
100
AcDbPolyline
 90
2
 70
0
 43
0.15
 10
-0.5
 20
-0.5
 10
0.5
 20
0.5
  0
ENDBLK
  5
23B
330
238
100
AcDbEntity
  8
0
100
AcDbBlockEnd
  0
BLOCK
  5
20
330
1F
100
AcDbEntity
  8
0
100
AcDbBlockBegin
  2
*Model_Space
 70
0
 10
0.0
 20
0.0
 30
0.0
  3
*Model_Space
  1

  0
ENDBLK
  5
21
330
1F
100
AcDbEntity
  8
0
100
AcDbBlockEnd
  0
BLOCK
  5
5A
330
58
100
AcDbEntity
 67
1
  8
0
100
AcDbBlockBegin
  2
*Paper_Space
 70
0
 10
0.0
 20
0.0
 30
0.0
  3
*Paper_Space
  1

  0
ENDBLK
  5
5B
330
58
100
AcDbEntity
 67
1
  8
0
100
AcDbBlockEnd
  0
BLOCK
  5
5DA
330
5DC
100
AcDbEntity
  8
0
370
0
390
1D
100
AcDbBlockBegin
  2
BLOCK173
 70
0
 10
0.0
 20
0.0
 30
0.0
  3
BLOCK173
  1
BLOCK173
  0
CIRCLE
  5
5DD
330
5DC
100
AcDbEntity
  8
0
 62
7
370
50
390
1D
100
AcDbCircle
 10
-1049.127333
 20
208.913053
 30
0.0
 40
1.5
  0
ARC
  5
5DE
330
5DC
100
AcDbEntity
  8
0
 62
7
370
50
390
1D
100
AcDbCircle
 10
-1448.0
 20
250.0
 30
0.0
 40
1.0
100
AcDbArc
 50
270.0
 51
360.0
  0
LINE
  5
5DF
330
5DC
100
AcDbEntity
  8
0
 62
7
370
50
390
1D
100
AcDbLine
 10
-1461.0
 20
249.0
 30
0.0
 11
-1448.0
 21
249.0
 31
0.0
  0
ARC
  5
5E0
330
5DC
100
AcDbEntity
  8
0
 62
7
370
50
390
1D
100
AcDbCircle
 10
-1461.0
 20
243.0
 30
0.0
 40
6.0
100
AcDbArc
 50
90.0
 51
180.0
  0
LINE
  5
5E1
330
5DC
100
AcDbEntity
  8
0
 62
7
370
50
390
1D
100
AcDbLine
 10
-1467.0
 20
243.0
 30
0.0
 11
-1467.0
 21
-243.0
 31
0.0
  0
ARC
  5
5E2
330
5DC
100
AcDbEntity
  8
0
 62
7
370
50
390
1D
100
AcDbCircle
 10
-1461.0
 20
-243.0
 30
0.0
 40
6.0
100
AcDbArc
 50
180.0
 51
270.0
  0
LINE
  5
5E3
330
5DC
100
AcDbEntity
  8
0
 62
7
370
50
390
1D
100
AcDbLine
 10
-1461.0
 20
-249.0
 30
0.0
 11
-1448.0
 21
-249.0
 31
0.0
  0
ARC
  5
5E4
330
5DC
100
AcDbEntity
  8
0
 62
7
370
50
390
1D
100
AcDbCircle
 10
-1448.0
 20
-250.0
 30
0.0
 40
1.0
100
AcDbArc
 50
0.0
 51
90.0
  0
LINE
  5
5E5
330
5DC
100
AcDbEntity
  8
0
 62
7
370
50
390
1D
100
AcDbLine
 10
-1447.0
 20
-250.7
 30
0.0
 11
-1447.0
 21
-250.0
 31
0.0
  0
ARC
  5
5E6
330
5DC
100
AcDbEntity
  8
0
 62
7
370
50
390
1D
100
AcDbCircle
 10
-1443.0
 20
-250.7
 30
0.0
 40
4.0
100
AcDbArc
 50
180.0
 51
270.0
  0
LINE
  5
5E7
330
5DC
100
AcDbEntity
  8
0
 62
7
370
50
390
1D
100
AcDbLine
 10
-1443.0
 20
-254.7
 30
0.0
 11
-1441.0
 21
-254.7
 31
0.0
  0
ARC
  5
5E8
330
5DC
100
AcDbEntity
  8
0
 62
7
370
50
390
1D
100
AcDbCircle
 10
-1441.0
 20
-250.7
 30
0.0
 40
4.0
100
AcDbArc
 50
270.0
 51
360.0
  0
LINE
  5
5E9
330
5DC
100
AcDbEntity
  8
0
 62
7
370
50
390
1D
100
AcDbLine
 10
-1437.0
 20
-250.7
 30
0.0
 11
-1437.0
 21
-250.0
 31
0.0
  0
ARC
  5
5EA
330
5DC
100
AcDbEntity
  8
0
 62
7
370
50
390
1D
100
AcDbCircle
 10
-1436.0
 20
-250.0
 30
0.0
 40
1.0
100
AcDbArc
 50
90.0
 51
180.0
  0
LINE
  5
5EB
330
5DC
100
AcDbEntity
  8
0
 62
7
370
50
390
1D
100
AcDbLine
 10
-1436.0
 20
-249.0
 30
0.0
 11
-1288.758452
 21
-249.0
 31
0.0
  0
LINE
  5
5EC
330
5DC
100
AcDbEntity
  8
0
 62
7
370
50
390
1D
100
AcDbLine
 10
-1288.758452
 20
-249.0
 30
0.0
 11
-1055.490569
 21
-207.406655
 31
0.0
  0
ARC
  5
5ED
330
5DC
100
AcDbEntity
  8
0
 62
7
370
50
390
1D
100
AcDbCircle
 10
-1055.31503
 20
-208.391128
 30
0.0
 40
1.0
100
AcDbArc
 50
10.11
 51
100.11
  0
LINE
  5
5EE
330
5DC
100
AcDbEntity
  8
0
 62
7
370
50
390
1D
100
AcDbLine
 10
-1054.330558
 20
-208.215589
 30
0.0
 11
-1054.207681
 21
-208.90472
 31
0.0
  0
ARC
  5
5EF
330
5DC
100
AcDbEntity
  8
0
 62
7
370
50
390
1D
100
AcDbCircle
 10
-1050.26979
 20
-208.202566
 30
0.0
 40
4.0
100
AcDbArc
 50
190.11
 51
280.11
  0
LINE
  5
5F0
330
5DC
100
AcDbEntity
  8
0
 62
7
370
50
390
1D
100
AcDbLine
 10
-1047.598691
 20
-211.789379
 30
0.0
 11
-1049.567636
 21
-212.140456
 31
0.0
  0
ARC
  5
5F1
330
5DC
100
AcDbEntity
  8
0
 62
7
370
50
390
1D
100
AcDbCircle
 10
-1048.300845
 20
-207.851489
 30
0.0
 40
4.0
100
AcDbArc
 50
280.11
 51
370.11
  0
LINE
  5
5F2
330
5DC
100
AcDbEntity
  8
0
 62
7
370
50
390
1D
100
AcDbLine
 10
-1044.485832
 20
-206.460204
 30
0.0
 11
-1044.362955
 21
-207.149335
 31
0.0
  0
ARC
  5
5F3
330
5DC
100
AcDbEntity
  8
0
 62
7
370
50
390
1D
100
AcDbCircle
 10
-1043.501359
 20
-206.284665
 30
0.0
 40
1.0
100
AcDbArc
 50
100.11
 51
190.11
  0
LINE
  5
5F4
330
5DC
100
AcDbEntity
  8
0
 62
7
370
50
390
1D
100
AcDbLine
 10
-1043.676898
 20
-205.300193
 30
0.0
 11
-663.670491
 21
-137.542312
 31
0.0
  0
ARC
  5
5F5
330
5DC
100
AcDbEntity
  8
0
 62
7
370
50
390
1D
100
AcDbCircle
 10
-663.494952
 20
-138.526784
 30
0.0
 40
1.0
100
AcDbArc
 50
10.11
 51
100.11
  0
LINE
  5
5F6
330
5DC
100
AcDbEntity
  8
0
 62
7
370
50
390
1D
100
AcDbLine
 10
-662.51048
 20
-138.351246
 30
0.0
 11
-662.387603
 21
-139.040377
 31
0.0
  0
ARC
  5
5F7
330
5DC
100
AcDbEntity
  8
0
 62
7
370
50
390
1D
100
AcDbCircle
 10
-658.449712
 20
-138.338222
 30
0.0
 40
4.0
100
AcDbArc
 50
190.11
 51
280.11
  0
LINE
  5
5F8
330
5DC
100
AcDbEntity
  8
0
 62
7
370
50
390
1D
100
AcDbLine
 10
-655.778613
 20
-141.925036
 30
0.0
 11
-657.747558
 21
-142.276113
 31
0.0
  0
ARC
  5
5F9
330
5DC
100
AcDbEntity
  8
0
 62
7
370
50
390
1D
100
AcDbCircle
 10
-656.480767
 20
-137.987145
 30
0.0
 40
4.0
100
AcDbArc
 50
280.11
 51
370.11
  0
LINE
  5
5FA
330
5DC
100
AcDbEntity
  8
0
 62
7
370
50
390
1D
100
AcDbLine
 10
-652.665754
 20
-136.59586
 30
0.0
 11
-652.542877
 21
-137.284991
 31
0.0
  0
ARC
  5
5FB
330
5DC
100
AcDbEntity
  8
0
 62
7
370
50
390
1D
100
AcDbCircle
 10
-651.681281
 20
-136.420322
 30
0.0
 40
1.0
100
AcDbArc
 50
100.11
 51
190.11
  0
LINE
  5
5FC
330
5DC
100
AcDbEntity
  8
0
 62
7
370
50
390
1D
100
AcDbLine
 10
-651.85682
 20
-135.435849
 30
0.0
 11
-645.946769
 21
-134.382045
 31
0.0
  0
ARC
  5
5FD
330
5DC
100
AcDbEntity
  8
0
 62
7
370
50
390
1D
100
AcDbCircle
 10
-647.0
 20
-128.475209
 30
0.0
 40
6.0
100
AcDbArc
 50
280.11
 51
360.0
  0
LINE
  5
5FE
330
5DC
100
AcDbEntity
  8
0
 62
7
370
50
390
1D
100
AcDbLine
 10
-641.0
 20
-128.475209
 30
0.0
 11
-641.0
 21
128.475209
 31
0.0
  0
ARC
  5
5FF
330
5DC
100
AcDbEntity
  8
0
 62
7
370
50
390
1D
100
AcDbCircle
 10
-647.0
 20
128.475209
 30
0.0
 40
6.0
100
AcDbArc
 50
0.0
 51
79.89
  0
LINE
  5
600
330
5DC
100
AcDbEntity
  8
0
 62
7
370
50
390
1D
100
AcDbLine
 10
-645.946769
 20
134.382045
 30
0.0
 11
-651.85682
 21
135.435849
 31
0.0
  0
ARC
  5
601
330
5DC
100
AcDbEntity
  8
0
 62
7
370
50
390
1D
100
AcDbCircle
 10
-651.681281
 20
136.420322
 30
0.0
 40
1.0
100
AcDbArc
 50
169.89
 51
259.89
  0
LINE
  5
602
330
5DC
100
AcDbEntity
  8
0
 62
7
370
50
390
1D
100
AcDbLine
 10
-652.665754
 20
136.59586
 30
0.0
 11
-652.542877
 21
137.284991
 31
0.0
  0
ARC
  5
603
330
5DC
100
AcDbEntity
  8
0
 62
7
370
50
390
1D
100
AcDbCircle
 10
-656.480767
 20
137.987145
 30
0.0
 40
4.0
100
AcDbArc
 50
349.89
 51
439.89
  0
LINE
  5
604
330
5DC
100
AcDbEntity
  8
0
 62
7
370
50
390
1D
100
AcDbLine
 10
-655.778613
 20
141.925036
 30
0.0
 11
-657.747558
 21
142.276113
 31
0.0
  0
ARC
  5
605
330
5DC
100
AcDbEntity
  8
0
 62
7
370
50
390
1D
100
AcDbCircle
 10
-658.449712
 20
138.338222
 30
0.0
 40
4.0
100
AcDbArc
 50
79.89
 51
169.89
  0
LINE
  5
606
330
5DC
100
AcDbEntity
  8
0
 62
7
370
50
390
1D
100
AcDbLine
 10
-662.51048
 20
138.351246
 30
0.0
 11
-662.387603
 21
139.040377
 31
0.0
  0
ARC
  5
607
330
5DC
100
AcDbEntity
  8
0
 62
7
370
50
390
1D
100
AcDbCircle
 10
-663.494952
 20
138.526784
 30
0.0
 40
1.0
100
AcDbArc
 50
259.89
 51
349.89
  0
LINE
  5
608
330
5DC
100
AcDbEntity
  8
0
 62
7
370
50
390
1D
100
AcDbLine
 10
-663.670491
 20
137.542312
 30
0.0
 11
-1043.676898
 21
205.300193
 31
0.0
  0
ARC
  5
609
330
5DC
100
AcDbEntity
  8
0
 62
7
370
50
390
1D
100
AcDbCircle
 10
-1043.501359
 20
206.284665
 30
0.0
 40
1.0
100
AcDbArc
 50
169.89
 51
259.89
  0
LINE
  5
60A
330
5DC
100
AcDbEntity
  8
0
 62
7
370
50
390
1D
100
AcDbLine
 10
-1044.485832
 20
206.460204
 30
0.0
 11
-1044.362955
 21
207.149335
 31
0.0
  0
ARC
  5
60B
330
5DC
100
AcDbEntity
  8
0
 62
7
370
50
390
1D
100
AcDbCircle
 10
-1048.300845
 20
207.851489
 30
0.0
 40
4.0
100
AcDbArc
 50
349.89
 51
439.89
  0
LINE
  5
60C
330
5DC
100
AcDbEntity
  8
0
 62
7
370
50
390
1D
100
AcDbLine
 10
-1047.598691
 20
211.789379
 30
0.0
 11
-1049.567636
 21
212.140456
 31
0.0
  0
ARC
  5
60D
330
5DC
100
AcDbEntity
  8
0
 62
7
370
50
390
1D
100
AcDbCircle
 10
-1050.26979
 20
208.202566
 30
0.0
 40
4.0
100
AcDbArc
 50
79.89
 51
169.89
  0
LINE
  5
60E
330
5DC
100
AcDbEntity
  8
0
 62
7
370
50
390
1D
100
AcDbLine
 10
-1054.330558
 20
208.215589
 30
0.0
 11
-1054.207681
 21
208.90472
 31
0.0
  0
ARC
  5
60F
330
5DC
100
AcDbEntity
  8
0
 62
7
370
50
390
1D
100
AcDbCircle
 10
-1055.31503
 20
208.391128
 30
0.0
 40
1.0
100
AcDbArc
 50
259.89
 51
349.89
  0
LINE
  5
610
330
5DC
100
AcDbEntity
  8
0
 62
7
370
50
390
1D
100
AcDbLine
 10
-1055.490569
 20
207.406655
 30
0.0
 11
-1288.758452
 21
249.0
 31
0.0
  0
LINE
  5
611
330
5DC
100
AcDbEntity
  8
0
 62
7
370
50
390
1D
100
AcDbLine
 10
-1436.0
 20
249.0
 30
0.0
 11
-1288.758452
 21
249.0
 31
0.0
  0
ARC
  5
612
330
5DC
100
AcDbEntity
  8
0
 62
7
370
50
390
1D
100
AcDbCircle
 10
-1436.0
 20
250.0
 30
0.0
 40
1.0
100
AcDbArc
 50
180.0
 51
270.0
  0
LINE
  5
613
330
5DC
100
AcDbEntity
  8
0
 62
7
370
50
390
1D
100
AcDbLine
 10
-1437.0
 20
250.0
 30
0.0
 11
-1437.0
 21
250.7
 31
0.0
  0
ARC
  5
614
330
5DC
100
AcDbEntity
  8
0
 62
7
370
50
390
1D
100
AcDbCircle
 10
-1441.0
 20
250.7
 30
0.0
 40
4.0
100
AcDbArc
 50
0.0
 51
90.0
  0
LINE
  5
615
330
5DC
100
AcDbEntity
  8
0
 62
7
370
50
390
1D
100
AcDbLine
 10
-1443.0
 20
254.7
 30
0.0
 11
-1441.0
 21
254.7
 31
0.0
  0
ARC
  5
616
330
5DC
100
AcDbEntity
  8
0
 62
7
370
50
390
1D
100
AcDbCircle
 10
-1443.0
 20
250.7
 30
0.0
 40
4.0
100
AcDbArc
 50
90.0
 51
180.0
  0
LINE
  5
617
330
5DC
100
AcDbEntity
  8
0
 62
7
370
50
390
1D
100
AcDbLine
 10
-1447.0
 20
250.0
 30
0.0
 11
-1447.0
 21
250.7
 31
0.0
  0
CIRCLE
  5
618
330
5DC
100
AcDbEntity
  8
0
 62
7
370
50
390
1D
100
AcDbCircle
 10
-1442.006507
 20
-251.6
 30
0.0
 40
1.5
  0
CIRCLE
  5
619
330
5DC
100
AcDbEntity
  8
0
 62
7
370
50
390
1D
100
AcDbCircle
 10
-657.307255
 20
139.048709
 30
0.0
 40
1.5
  0
CIRCLE
  5
61A
330
5DC
100
AcDbEntity
  8
0
 62
7
370
50
390
1D
100
AcDbCircle
 10
-1442.006507
 20
251.6
 30
0.0
 40
1.5
  0
CIRCLE
  5
61B
330
5DC
100
AcDbEntity
  8
0
 62
7
370
50
390
1D
100
AcDbCircle
 10
-657.307255
 20
-139.048709
 30
0.0
 40
1.5
  0
CIRCLE
  5
61C
330
5DC
100
AcDbEntity
  8
0
 62
7
370
50
390
1D
100
AcDbCircle
 10
-1049.127333
 20
-208.913053
 30
0.0
 40
1.5
  0
LINE
  5
61D
330
5DC
100
AcDbEntity
  8
0
  6
DASHED
 62
1
370
50
390
1D
100
AcDbLine
 10
-1497.0
 20
227.216173
 30
0.0
 11
-621.0
 21
71.01906
 31
0.0
  0
LINE
  5
61E
330
5DC
100
AcDbEntity
  8
0
  6
DASHED
 62
1
370
50
390
1D
100
AcDbLine
 10
-1497.0
 20
-227.216173
 30
0.0
 11
-621.0
 21
-71.01906
 31
0.0
  0
LINE
  5
61F
330
5DC
100
AcDbEntity
  8
0
  6
DOT
 62
3
370
50
390
1D
100
AcDbLine
 10
-727.456
 20
-129.616053
 30
0.0
 11
-727.456
 21
129.616053
 31
0.0
  0
LINE
  5
620
330
5DC
100
AcDbEntity
  8
0
  6
DOT
 62
3
370
50
390
1D
100
AcDbLine
 10
-801.892
 20
-142.888528
 30
0.0
 11
-801.892
 21
142.888528
 31
0.0
  0
LINE
  5
621
330
5DC
100
AcDbEntity
  8
0
  6
DOT
 62
3
370
50
390
1D
100
AcDbLine
 10
-884.139
 20
-157.553761
 30
0.0
 11
-884.139
 21
157.553761
 31
0.0
  0
LINE
  5
622
330
5DC
100
AcDbEntity
  8
0
  6
DOT
 62
3
370
50
390
1D
100
AcDbLine
 10
-975.077
 20
-173.768662
 30
0.0
 11
-975.077
 21
173.768662
 31
0.0
  0
LINE
  5
623
330
5DC
100
AcDbEntity
  8
0
  6
DOT
 62
3
370
50
390
1D
100
AcDbLine
 10
-1075.708
 20
-191.711895
 30
0.0
 11
-1075.708
 21
191.711895
 31
0.0
  0
LINE
  5
624
330
5DC
100
AcDbEntity
  8
0
  6
DOT
 62
3
370
50
390
1D
100
AcDbLine
 10
-1187.178
 20
-211.587799
 30
0.0
 11
-1187.178
 21
211.587799
 31
0.0
  0
LINE
  5
625
330
5DC
100
AcDbEntity
  8
0
  6
DOT
 62
3
370
50
390
1D
100
AcDbLine
 10
-1310.804
 20
-230.0
 30
0.0
 11
-1310.804
 21
230.0
 31
0.0
  0
LINE
  5
626
330
5DC
100
AcDbEntity
  8
0
  6
DASHSPACE
 62
150
370
50
390
1D
100
AcDbLine
 10
-1290.439116
 20
230.0
 30
0.0
 11
-660.0
 21
117.588162
 31
0.0
  0
LINE
  5
627
330
5DC
100
AcDbEntity
  8
0
  6
DASHSPACE
 62
150
370
50
390
1D
100
AcDbLine
 10
-1448.0
 20
230.0
 30
0.0
 11
-1290.439116
 21
230.0
 31
0.0
  0
LINE
  5
628
330
5DC
100
AcDbEntity
  8
0
  6
DASHSPACE
 62
150
370
50
390
1D
100
AcDbLine
 10
-1448.0
 20
-230.0
 30
0.0
 11
-1448.0
 21
230.0
 31
0.0
  0
LINE
  5
629
330
5DC
100
AcDbEntity
  8
0
  6
DASHSPACE
 62
150
370
50
390
1D
100
AcDbLine
 10
-1290.439116
 20
-230.0
 30
0.0
 11
-1448.0
 21
-230.0
 31
0.0
  0
LINE
  5
62A
330
5DC
100
AcDbEntity
  8
0
  6
DASHSPACE
 62
150
370
50
390
1D
100
AcDbLine
 10
-660.0
 20
-117.588162
 30
0.0
 11
-1290.439116
 21
-230.0
 31
0.0
  0
LINE
  5
62B
330
5DC
100
AcDbEntity
  8
0
  6
DASHSPACE
 62
150
370
50
390
1D
100
AcDbLine
 10
-660.0
 20
117.588162
 30
0.0
 11
-660.0
 21
-117.588162
 31
0.0
  0
ENDBLK
  5
5DB
330
5DC
100
AcDbEntity
  8
0
390
1D
100
AcDbBlockEnd
  0
BLOCK
  5
240
330
23C
100
AcDbEntity
  8
0
100
AcDbBlockBegin
  2
_Open30
 70
0
 10
0.0
 20
0.0
 30
0.0
  3
_Open30
  1

  0
LINE
  5
23D
330
23C
100
AcDbEntity
  8
0
  6
ByBlock
 62
0
370
-2
100
AcDbLine
 10
-1.0
 20
0.26794919
 30
0.0
 11
0.0
 21
0.0
 31
0.0
  0
LINE
  5
23E
330
23C
100
AcDbEntity
  8
0
  6
ByBlock
 62
0
370
-2
100
AcDbLine
 10
0.0
 20
0.0
 30
0.0
 11
-1.0
 21
-0.26794919
 31
0.0
  0
LINE
  5
23F
330
23C
100
AcDbEntity
  8
0
  6
ByBlock
 62
0
370
-2
100
AcDbLine
 10
0.0
 20
0.0
 30
0.0
 11
-1.0
 21
0.0
 31
0.0
  0
ENDBLK
  5
241
330
23C
100
AcDbEntity
  8
0
100
AcDbBlockEnd
  0
ENDSEC
  0
SECTION
  2
ENTITIES
  0
INSERT
  5
62C
330
1F
100
AcDbEntity
  8
0
 67
0
100
AcDbBlockReference
  2
BLOCK173
 10
0.0
 20
0.0
 41
1.0
 42
1.0
 43
1.0
 50
180.0
  0
ENDSEC
  0
SECTION
  2
OBJECTS
  0
DICTIONARY
  5
C
330
0
100
AcDbDictionary
281
1
  3
ACAD_COLOR
350
4FB
  3
ACAD_GROUP
350
4FC
  3
ACAD_LAYOUT
350
4FD
  3
ACAD_MATERIAL
350
4FE
  3
ACAD_MLEADERSTYLE
350
4FF
  3
ACAD_MLINESTYLE
350
500
  3
ACAD_PLOTSETTINGS
350
501
  3
ACAD_PLOTSTYLENAME
350
503
  3
ACAD_SCALELIST
350
504
  3
ACAD_TABLESTYLE
350
505
  3
ACAD_VISUALSTYLE
350
506
  0
DICTIONARY
  5
4FB
330
C
100
AcDbDictionary
281
1
  0
DICTIONARY
  5
4FC
330
C
100
AcDbDictionary
281
1
  0
DICTIONARY
  5
4FD
330
C
100
AcDbDictionary
281
1
  3
Model
350
507
  3
Layout1
350
508
  0
DICTIONARY
  5
4FE
330
C
100
AcDbDictionary
281
1
  0
DICTIONARY
  5
4FF
330
C
100
AcDbDictionary
281
1
  0
DICTIONARY
  5
500
330
C
100
AcDbDictionary
281
1
  0
DICTIONARY
  5
501
330
C
100
AcDbDictionary
281
1
  0
ACDBPLACEHOLDER
  5
502
330
503
  0
ACDBDICTIONARYWDFLT
  5
503
330
C
100
AcDbDictionary
281
1
  3
Normal
350
502
100
AcDbDictionaryWithDefault
340
502
  0
DICTIONARY
  5
504
330
C
100
AcDbDictionary
281
1
  0
DICTIONARY
  5
505
330
C
100
AcDbDictionary
281
1
  0
DICTIONARY
  5
506
330
C
100
AcDbDictionary
281
1
  0
LAYOUT
  5
507
330
4FD
100
AcDbPlotSettings
  1

  2
DWFx ePlot (XPS Compatible).pc3
  4
ANSI_A_(8.50_x_11.00_Inches)
  6

 40
5.8
 41
17.8
 42
5.8
 43
17.8
 44
215.9
 45
279.4
 46
0.0
 47
0.0
 48
0.0
 49
0.0
140
0.0
141
0.0
142
1.0
143
14.53
 70
11952
 72
0
 73
1
 74
0
  7

 75
0
147
0.069
148
114.98
149
300.29
100
AcDbLayout
  1
Model
 70
1
 71
0
 10
0.0
 20
0.0
 11
12.0
 21
9.0
 12
0.0
 22
0.0
 32
0.0
 14
0.0
 24
0.0
 34
0.0
 15
0.0
 25
0.0
 35
0.0
146
0.0
 13
0.0
 23
0.0
 33
0.0
 16
1.0
 26
0.0
 36
0.0
 17
0.0
 27
1.0
 37
0.0
 76
0
330
1F
  0
LAYOUT
  5
508
330
4FD
100
AcDbPlotSettings
  1

  2
DWFx ePlot (XPS Compatible).pc3
  4
ANSI_A_(8.50_x_11.00_Inches)
  6

 40
5.8
 41
17.8
 42
5.8
 43
17.8
 44
215.9
 45
279.4
 46
0.0
 47
0.0
 48
0.0
 49
0.0
140
0.0
141
0.0
142
1.0
143
1.0
 70
688
 72
0
 73
1
 74
5
  7
acad.ctb
 75
16
147
1.0
148
0.0
149
0.0
100
AcDbLayout
  1
Layout1
 70
1
 71
1
 10
-0.7
 20
-0.23
 11
10.3
 21
8.27
 12
0.0
 22
0.0
 32
0.0
 14
0.63
 24
0.8
 34
0.0
 15
9.0
 25
7.2
 35
0.0
146
0.0
 13
0.0
 23
0.0
 33
0.0
 16
1.0
 26
0.0
 36
0.0
 17
0.0
 27
1.0
 37
0.0
 76
0
330
58
  0
ENDSEC
  0
EOF
